<?xml version="1.0" encoding="UTF-8"?>
<svg width="458.68mm" height="458.68mm" version="1.1" viewBox="0 0 458.68 458.68" xml:space="preserve" xmlns="http://www.w3.org/2000/svg" xmlns:xlink="http://www.w3.org/1999/xlink"><defs><radialGradient id="a" cx="737.27" cy="261.81" r="28.663" gradientTransform="matrix(.49098 -.14444 .22373 .76049 -206.94 135.35)" gradientUnits="userSpaceOnUse"><stop style="stop-color:#004e81" offset="0"/><stop style="stop-color:#1e2938" offset="1"/></radialGradient><linearGradient id="b" x1="101.25" x2="142.08" y1="379.72" y2="89.15" gradientTransform="translate(2.3667e-6 65.088)" gradientUnits="userSpaceOnUse"><stop style="stop-color:#16aefc" offset="0"/><stop style="stop-color:#4fe4ff" offset="1"/></linearGradient></defs><g transform="translate(143.5 -73.047)"><path d="m184.63 208.66 12.695 39.566 44.631-0.90576-16.496-39.544z" style="fill:url(#a);stroke-linejoin:round;stroke-width:1.6"/><g transform="translate(0 65.088)"><path d="m227.14 92.377-6.1879 8.3603-0.18664 2.9558s5.473 1.8178 10.232 5.0952c4.6381 3.1939 7.3599 5.4435 7.3599 5.4435l1.4164-2.7773-2.1941-9.3318-2.7773-7.4154-3.1939-5.1936z" style="fill:#333;stroke-linejoin:round;stroke-width:1.6"/><path d="m149.31 147.94 0.80872-34.505 16.04-28.036 29.383 40.571z" style="fill:#333;stroke-linejoin:round;stroke-width:1.6"/><path d="m109.14 193.99 1.9476-12.52 84.303 0.27823-0.41735 9.4598z" style="fill:#333;stroke-linejoin:round;stroke-width:1.6"/><path d="m125.83 211.66 34.361-13.494 35.474-6.2601 0.69559 8.9033-68.166 20.311z" style="fill:#333;stroke-linejoin:round;stroke-width:1.6"/><path d="m125.42 155.6 71.783 18.085-3.0605 8.7642-79.573-16.555z" style="fill:#333;stroke-linejoin:round;stroke-width:1.6"/></g><path d="m308.3 229.81c-4.0161 0.42149-7.9697 1.3541-11.927 2.0849-4.7407 1.2879-9.6329 1.9994-14.28 3.6438-2.2065 0.65532-4.0981 1.1854-6.0541 1.88 0.44267 1.0694 1.0309 2.7035 1.6406 3.8573 9.7011-2.7063 10.44-2.7491 12.773-3.3319 5.0841-1.2278 7.9838-2.1523 12.004-3.1523 2.5068-0.78636 4.9362-0.77982 6.581-2.6284 0.90843-0.82208 0.77272-2.5346-0.73689-2.3534zm-29.08 20.208c-0.17134 0.90106-0.24873 1.9877-0.41043 3.8702 1.1566 0.1285 4.3891 0.31284 7.1785 0.39772 4.453 0.17228 17.009 0.77271 18.98 0.85625 3.2213 0.0893 5.4787 0.20043 8.0176 0.22078 2.8299 0.036 2.9754-3.9062 0.19106-4.0247-2.7479-0.20491-5.2245-0.39794-8.4577-0.53355-4.968-0.24771-8.5872-0.27569-12.868-0.60837-3.7499-0.12517-8.8795-0.19005-12.631-0.17836zm-2.0969 11.688c-0.3051 0.86266-0.52126 1.4248-0.89354 2.7741 4.9881 1.7156 13.983 5.3443 18.965 7.0786 5.2062 1.8411 9.3946 3.5382 14.312 5.4134 2.4588 0.82973 3.3304-2.3166 1.1673-3.0989-3.0651-1.3725-7.3254-2.6964-9.8136-3.8579-5.3374-1.9812-10.247-3.9482-15.664-5.7118-2.468-0.74404-4.4857-1.6309-6.9668-2.3023-0.46355-0.12543-1.1062-0.29523-1.1062-0.29523z" style="fill:#fcfffe;stroke-linejoin:round;stroke-width:1.6"/><path d="m243.4 246.64 17.188-0.25032 3.5461 0.79267 0.49879 0.1693s1.5289 7.3563-5.2956 14.801c-6.8245 7.4449-15.111-7.9324-15.111-7.9324l-2.1271-5.9382z" style="fill:#333;stroke-linejoin:round;stroke-width:1.6"/><g transform="translate(0 65.088)" style="fill:#fcfffe"><path d="m210.37 280.38c0.24551 0.45874 3.202 4.498 4.1553 5.6772 0.21519 0.26616 0.76723 1.0996 1.2268 1.8521s1.7367 2.559 2.8381 4.0142c3.9438 5.211 6.4761 8.4965 7.9747 10.347 3.1906 5.4875 9.9487 11.928 12.134 17.189 2.7459 3.8721 4.9632 8.0762 7.4786 12.085 0.48471 0.76435 1.3674 2.4016 1.9611 3.6385 4.7576 9.9109 5.0499 10.58 5.9046 13.494 0.3201 1.0914 0.7594 2.5202 0.97616 3.175 0.66435 2.007 1.9871 7.558 2.4588 10.319 0.64172 3.7563 0.88337 4.6917 1.6082 6.2177 0.41471 0.87313 0.90887 1.7674 1.0976 1.9875 0.46394 0.54091 1.5914 0.92293 2.3787 1.1193 0.38673 0.0965 0.44313 0.10906 0.58752 0.13743 0.17923 7e-3 0.7109-0.37685 1.6991-1.4573 5.4646-5.9746 5.1208-12.196 3.9987-18.654-0.46822-1.85-0.74594-2.973-1.0635-4.2995-0.34375-1.4359-1.6413-5.4398-2.7864-8.599-0.67764-1.8696-3.8337-8.3384-5.2493-10.76-0.35451-0.60633-1.3663-2.1927-2.2484-3.5248-0.88213-1.3321-1.6035-2.4912-1.6035-2.5761-2.6433-4.0529-4.3988-6.2619-7.8548-10.458-7.7951-9.7904-16.496-18.242-23.917-23.232-1.2864-0.86495-2.3898-1.5725-2.452-1.5725s-1.5845-0.96611-3.3832-2.1466c-2.7385-1.3131-6.0701-3.534-8.0378-4.7481-0.13964 0.16644-0.0184 0.51872 0.11886 0.77518z" style="fill:#fcfffe;stroke-linejoin:round;stroke-width:1.6"/><path d="m231.82 73.815c-0.71655 0.0766-1.5708 0.3962-2.6774 0.971-4.7315 2.4577-8.2807 4.9234-12.913 8.9716-3.5117 3.0685-15.338 15.123-15.338 15.588 1.1601 0.143 2.1522 0.33157 2.22 0.34679 3.5959 0.80759 5.6833-0.54244 14.42 2.8484 0.36381 0.14121 2.5573 0.84965 3.2369 1.1545 0.45526-0.88137 0.42554-0.79353 0.7029-1.37 0.69213-1.4384 3.0604-4.4436 4.902-6.9246 1.0271-1.3837 3.1481-3.6417 4.0638-3.9026 0.66333 0 1.5182 1.2996 2.959 4.4979 2.008 4.4574 3.7002 9.8862 4.2473 13.626 0.17029 1.1642 0.44747 2.6524 0.61598 3.3073 0.1685 0.65484 0.0958 1.1412 0.0958 1.2867 0 0.22145 3.4004 2.2062 3.6672 2.4174 0.24805 0.19637 2.5583 1.9343 4.084 3.5032l1.7198 1.7684 0.0816-1.5115c0.0449-0.8312 0.0251-2.7016-0.0434-4.1568-0.11988-2.5458-0.25897-3.6376-0.9772-7.6729-0.51048-3.4522-1.3659-6.8424-2.3683-10.186-0.52482-1.7225-0.9144-3.4908-1.603-5.1594-0.12473-0.29104-0.51926-1.4221-0.87643-2.5135-0.68756-2.101-1.521-4.2902-2.2159-5.8208-2.8808-6.3461-4.7718-9.5999-6.15-10.581-0.55737-0.39689-1.1366-0.56341-1.8531-0.4868z" style="fill:#fcfffe;stroke-linejoin:round;stroke-width:1.6"/><path d="m165.76 73.094c-1.0446 0.26218-2.7998 1.552-4.0607 2.9838-1.0939 1.2422-3.8492 4.8086-4.3682 5.6539-0.14552 0.23703-1.604 2.4094-3.2412 4.8276s-2.9766 4.4645-2.9766 4.547-0.59531 1.0322-1.3229 2.1105c-2.1531 3.1907-3.6918 6.1044-5.44 9.6573-2.6412 4.7748-4.4814 9.8497-6.1779 15.019-1.3636 3.9075-5.2577 15.876-7.52 20.39-0.2429 0.48474-0.44131 1.0036-0.44131 1.1529 0 0.25343-1.3078 3.0341-1.8433 3.9191-0.13207 0.21828-0.56397 1.0906-0.95963 1.9389-3.0159 4.5816-5.4922 9.4911-9.0992 13.804-0.5175 0.58208-1.5342 1.862-2.2588 2.8443-0.72462 0.98227-9.5579 11.745-13.753 16.328-1.0186 1.101-3.1618 3.4843-4.7625 5.2963s-3.2185 3.6159-3.5951 4.0085c-0.37664 0.39268-2.0032 2.1826-3.6142 3.9775-1.611 1.795-3.5479 3.8592-4.3041 4.5868-3.8886 3.7413-11.675 12.094-18.186 18.774-1.7099 1.7543-5.1925 5.4428-7.7391 8.1969-2.5466 2.7541-6.3573 6.8015-8.4682 8.9943-6.9461 7.2155-14.215 15.139-17.99 19.611-1.0914 1.2928-2.9964 3.4283-4.2333 4.7454-1.2369 1.3171-2.748 2.9583-3.3579 3.6468-6.3037 7.1153-3.2422 4.1782-8.8129 10.63-0.65484 0.75846-2.0836 2.4352-3.175 3.7259-1.0914 1.2907-2.7583 3.1876-3.7042 4.2158-0.94589 1.0282-2.3746 2.6824-3.175 3.6763-2.2201 2.7567-9.1395 11.001-10.999 13.106-0.5924 0.67043-2.041 2.4097-3.2194 3.8649-1.1785 1.4552-2.6287 3.167-3.2225 3.8039-1.7586 2.0577-3.3376 4.2634-5.0395 6.3826-2.6594 3.309-4.308 5.2867-5.7082 6.8476-0.73351 0.81776-2.2199 2.5583-3.3032 3.868-2.0242 2.4472-4.6612 5.4941-6.9996 8.0874-0.7304 0.81002-2.3401 2.6414-3.577 4.0695-8.1361 9.3936-28.58 30.205-37.441 38.114-2.6086 2.3283-5.7064 5.1263-6.8838 6.2177-1.1774 1.0914-3.0264 2.735-4.1093 3.6525-1.0829 0.9175-2.8618 2.4301-3.9532 3.361-4.0591 3.4624-12.071 10.023-14.397 11.789-3.0197 2.2929-11.414 8.8919-12.618 9.6402-2.985 1.8552-9.9794 7.4037-12.846 9.2909-3.7241 2.452-12.055 8.9992-14.114 11.092l-2.249 2.2856 1.3229-0.16071c0.72761-0.0883 0.97667-0.16045 1.9722-0.31655 0.99558-0.15611 3.9157-0.85532 5.4495-1.2905 7.3726-2.1536 8.3843-2.7042 9.846-3.2841 1.8492-0.73364 2.8051-1.1289 5.04-2.1642 2.6177-1.2126 1.9601-0.84013 4.0184-1.7653 2.0154-0.90588 2.995-1.3221 4.2333-1.7989 1.653-0.6364 1.0076-0.44443 1.8691-0.81545l0.97803-0.4346c-0.0653 0.0407 0.22943-0.41005 0.31072-0.47862 0.14492 0 0.84829-0.73742 1.8671-1.6724 1.0188-0.93495 2.4777-2.0699 3.2422-2.5218 0.76444-0.45186 3.057-1.8611 5.0943-3.1321 2.0373-1.271 4.4185-2.7105 5.2917-3.1988 1.6083-0.89937 6.7075-4.0764 8.2496-5.1397 1.1296-0.77888 3.7051-2.3659 4.8472-2.9869 1.3396-0.72834 3.692-2.2546 3.9249-2.436 0.15976-0.12437 5.9637-3.9723 8.1136-5.5449 2.3309-1.705 2.4446-1.7866 4.8948-3.5021 1.2369-0.866 2.9633-2.1124 3.8365-2.7699 5.1758-3.8973 11.737-8.5476 15.743-11.158 1.2369-0.80616 3.0824-2.1495 4.101-2.9854 2.1243-1.7431 8.8721-6.8287 10.054-7.5773 0.43656-0.27649 2.3416-1.67 4.2333-3.097 3.1902-2.4064 4.2221-3.1273 7.7252-6.0755 1.2881-0.91984 2.4515-1.9738 3.6518-2.9983 0.72761-0.60949 3.5851-2.6338 6.35-4.4979 2.7649-1.8641 5.2057-3.5804 5.424-3.8142 0.83748-0.89695 5.0858-4.2964 9.6247-7.7019 6.8426-5.1338 7.0558-5.2813 11.41-7.8827 4.1282-2.4666 6.6648-4.1666 8.9659-6.0094 1.3566-1.0865 9.985-6.8983 12.465-8.3964 0.7276-0.43945 3.2802-1.7992 5.6725-3.0215 5.2792-2.6973 6.275-3.2477 8.4827-4.6876 7.2054-4.6993 13.263-7.9486 17.992-9.6511 1.1865-0.4272 1.8236-0.67121 2.6458-1.0139 0.3638-0.15162 1.4372-0.57296 2.3854-0.93586 0.94814-0.36289 2.3769-0.95548 3.175-1.3172s2.1654-0.92076 3.0386-1.2423c0.87312-0.32155 1.8256-0.68161 2.1167-0.79995 0.29104-0.11835 1.3031-0.46177 2.249-0.76326 4.1267-1.3153 6.7845-2.1891 7.276-2.3916 0.29104-0.11988 1.184-0.3603 1.9844-0.53434 0.80037-0.17404 1.7529-0.41413 2.1167-0.53382 1.1443-0.37648 6.2568-1.4348 10.186-2.1084 5.1487-0.88249 27.146-1.3185 29.898-0.59273 0.7276 0.19191 1.8587 0.47087 2.5135 0.62011 0.65485 0.14925 1.4883 0.36257 1.8521 0.47388 0.3638 0.11131 1.1377 0.34546 1.7198 0.5209 0.58208 0.17544 1.2964 0.41835 1.5875 0.5395 0.29104 0.12115 1.4349 0.5743 2.542 1.0072 2.4751 0.9678 5.4854 2.9706 7.9246 5.2715 2.5518 2.4073 3.589 3.9202 4.4664 6.5159 0.63877 1.8896 0.73207 2.5066 0.60927 4.0364-0.13165 1.6402-0.25103 1.9355-1.2955 3.2179-0.54611 0.67047-0.82811 0.97967-0.98702 1.0568l-0.0724 0.23977c-1.1299 1.5798-2.1433 3.104-3.6912 4.3444-2.2954 1.777-4.917 2.5266-6.6446 3.3104-1.8337 0.83197-4.0533 2.8936-4.8214 6.5955-0.18117 0.87313-0.44327 1.8736-0.58188 2.2231-0.0458 0.11536 0.0261 0.15227 7e-3 0.25063l0.20412 0.35295c-0.017-0.25399 0.15697-0.39979 0.56689-0.14676 3.7201 2.2962 7.755 3.9631 12.295 5.0798 1.5742 0.38717 7.0904 0.40474 8.9721 0.0284 0.77509-0.155 2.0641-0.40985 2.8644-0.56637 1.5088-0.29507 4.2375-1.0917 5.1594-1.5058 4.9171-2.2092 6.8129-3.446 10.416-6.7965 5.9577-5.5394 7.1848-7.6896 8.197-12.239l0.27762-1.2477c0.60817-1.1477 0.17837-8.9221 0.0222-10.505-0.15621-1.5832-0.35591-3.347-2.8052-8.5958-1.2092-2.5914-2.3439-4.8971-3.7719-7.0817-0.38204-0.58449-0.81359-1.2541-0.95912-1.4878-2.3387-3.7546-6.9028-8.5707-11.151-11.767-1.6217-1.2203-3.0292-2.219-3.1274-2.219s-0.69409-0.35471-1.324-0.78807c-0.97925-0.67374-4.6463-2.5121-6.3583-3.1874-3.6134-1.4254-9.7424-3.1043-13.891-3.8054-7.2714-1.229-8.9466-1.3471-19.05-1.3431-9.3871 4e-3 -9.7758 0.0247-13.891 0.74569-6.2427 1.0938-18.778 4.3773-27.12 7.1034-2.2383 0.73152-3.8204 1.0907-4.8948 1.1116-1.5485 0.0301-1.5897 0.0131-1.6722-0.70538-0.07-0.60924 0.22728-1.0464 1.7198-2.529 3.7663-3.7414 11.71-7.8727 22.817-11.867 6.8311-2.4565 7.1347-2.5387 13.361-3.6029 0 0 4.3063-0.63932 6.7639-0.8475 2.4576-0.20817 7.9422-0.23933 7.9422-0.23933 6.98 2e-3 8.7428 0.0806 10.848 0.48628 1.3824 0.26641 1.9979 0.35179 3.5714 0.67723 1.5735 0.32545 5.1813 0.87152 7.8718 1.5573 2.1103 0.56154 3.2794 0.90572 3.7703 1.11 0.29104 0.12112 1.6603 0.59497 3.0427 1.0532 1.3824 0.45818 2.7814 1.0035 3.1089 1.2113 0.32742 0.20784 0.59531 0.27487 0.59531 0.14934 0-0.12552 0.69326-0.76629 1.5405-1.4242 0.8472-0.65792 2.2992-2.136 3.2267-3.284 0.92752-1.1481 2.5832-3.014 3.6794-4.1465 1.0962-1.1326 2.7358-2.2858 2.854-2.4971 0.26768-0.47832 7.054-6.9365 9.2047-8.5772 1.2371-0.94377 5.2396-2.8206 7.2968-4.9132 0.88025-0.89542 0.78425-1.571-0.53983-2.9486-1.9276-2.0057-4.2043-2.9218-7.679-5.6861 1.0862 0.27667 1.8391 0.30426 7.1124 2.1287 3.8892 1.3456 5.7934 2.2238 9.5737 2.5864 6.4425 0.61797 20.638 1.5171 28.972-0.32046 3.1994-0.70543 8.2953-1.4429 10.24-2.086 0.80582-0.64113 0.77115-0.5698 1.6454-1.251 1.668-1.2995 5.424-4.9008 5.424-5.1056 1.448-1.5031 2.2321-2.4502 3.3838-4.2607 0.69711-0.98279 1.4804-2.3823 1.7405-3.1099 0.44252-1.238 0.57406-1.5759 1.2072-3.1088 0.13523-0.32742 0.47864-1.2736 0.76326-2.1027l0.51728-1.5074-0.65164 0.42685c-0.99915 0.65467-3.4252 0.56066-4.9826-0.19327-1.6181-0.78332-4.8114-3.7908-6.6389-6.2523-2.9112-3.9213-4.0939-6.9516-3.1864-8.1644 0.38176-0.51017 0.75369-0.53178 10.339-0.60978 8.0447-0.0655 9.7644 0.0557 10.112 0.19401 0.1038-0.5886-0.34084-1.35-0.48919-1.7198-2.466-6.2611-4.1313-10.431-6.0066-15.783-0.1952-0.60059-0.40663-1.7991-0.55215-2.454-0.14553-0.65485-0.3732-1.6966-0.50591-2.3151-0.22556-1.0511-1.0437-4.1717-1.6474-6.2839-0.85096-3.1292-2.331-6.0666-3.7352-8.9958-3.9187-8.1749-11.407-16.698-21.338-24.284-0.80194-0.61261-8.2306-4.439-9.6831-4.9878-4.4842-1.9007-9.1379-3.4844-13.824-4.8354-2.5875-0.68335-3.7772-0.84833-5.0493-0.93483-2.4932-0.16949-1.4626-0.16152-5.3246-0.47597-3.862-0.31444-4.1821-0.48275-4.5089-1.2159-0.26749-0.60002-0.28522-0.54014-0.78806-1.8955-0.72728-1.9603-4.0884-8.663-5.0658-10.102-0.5641-0.83068-1.0253-1.5818-1.0253-1.6692s-0.56555-1.0201-1.2568-2.0727c-0.69123-1.0526-1.3758-2.099-1.5214-2.3254-6.6606-10.365-13.639-17.489-16.442-16.786zm0.70848 17.609c1.3943 0 6.2487 6.173 10.176 12.94 4.1438 7.1401 7.2771 15.189 7.2771 18.694 0 0.7979-0.0828 0.90951-0.67282 0.90951-1.988 0-10.492 2.3289-13.524 3.7036-3.1672 1.4361-5.8581 3.3942-9.4392 6.8688-2.5023 2.4279-4.6154 4.976-6.0973 7.353-0.38556 0.61846-0.81254 1.1245-0.94929 1.1245-0.34155 0-0.44838-7.3193-0.21188-14.533 0.22291-6.7989 0.7489-11.025 1.879-15.1 1.3488-4.864 4.0438-10.847 6.7345-14.949 0.85898-1.3097 2.2326-3.423 3.052-4.6964s1.6183-2.3151 1.7756-2.3151zm42.985 53.34c4.7716 0.0165 7.0124 0.46974 10.201 2.0624 4.0231 2.0095 7.0324 5.2833 9.4837 10.317 1.0056 2.065 4.9892 17.515 4.7062 18.252-0.10698 0.27879-0.42479 0.34717-1.1596 0.24857-0.55681-0.0747-2.4397 0.0581-4.1842 0.29559-2.9759 0.40515-3.8771 0.55445-7.5375 1.2454-2.0719 0.39111-9.485 0.51967-10.451 0.18138-4.4241-1.5492-5.9123-2.3673-8.707-4.7878-3.1778-2.7524-5.1103-6.0071-7.5504-12.716-1.9952-5.4855-2.4714-6.5112-3.4649-7.4631-1.4262-1.3663-1.1579-1.7838 2.1937-3.4163 2.8702-1.398 7.7579-3.1589 10.782-3.8845 0.90933-0.2182 3.0432-0.34387 5.6885-0.33487zm-83.224 15.463c1.0053-9e-3 2.2067 0.0709 3.4013 0.24288 0.97391 0.14025 2.7234 0.38557 3.8876 0.54519 2.0619 0.2827 6.3358 1.0721 8.4667 1.5637 0.58208 0.1343 3.0585 0.61402 5.503 1.0661 2.4446 0.45207 7.7428 1.6342 11.774 2.6267s9.2938 2.253 11.695 2.8014 6.1516 1.5107 8.3344 2.1384c2.1828 0.62769 5.5761 1.5564 7.5406 2.0634 4.6231 1.1933 5.7859 1.6251 6.6766 2.4784 1.3488 1.2922 0.78617 3.5977-1.1152 4.5677-0.94248 0.48079-3.3223 0.445-3.7476 0.40566-0.248-0.0229-2.2782-0.33362-4.0578-0.66142-1.884-0.34704-3.5841-0.79019-6.8842-1.4242-7.2945-1.4015-9.2845-1.9085-12.435-2.5259-3.0936-0.60622-6.18-1.2474-9.2604-1.9177-3.9445-0.81571-7.8561-1.7778-11.774-2.711-4.5314-0.97702-9.0748-1.9124-13.626-2.7947-2.5549-0.48915-5.7166-1.3338-6.49-1.7337-1.2458-0.64424-1.6538-1.5046-1.4604-2.9719 0.17024-1.2913 0.77754-2.8762 1.4842-3.1982 0.41057-0.18707 1.0824-0.55131 2.0877-0.56073zm47.503 23.814c9.0799 0.0811 16.49 0.31123 17.362 0.64596 1.1746 0.45073 1.4761 3.1852 0.52141 4.7299-1.109 1.7944-2.5249 1.9501-20.659 2.2738-8.0764 0.14415-16.947 0.32782-19.711 0.40772-11.264 0.32553-13.775 0.39201-20.108 0.53382-3.638 0.0815-7.0313 0.18788-7.5406 0.23668-1.4054 0.13461-5.8492-0.27987-6.7469-0.62942-2.4642-0.95959-3.5414-3.677-2.0309-5.1242 1.4875-1.4251 4.9354-1.9332 15.525-2.2867 4.6567-0.15546 11.86-0.39908 16.007-0.54157 7.5522-0.25947 18.302-0.3271 27.382-0.24598zm18.945 10.98c1.2105 0.65827 1.5714 2.0454 1.5734 2.8652 1e-3 0.80837-0.93317 2.0313-1.8994 2.5945-0.76726 0.4472-4.1636 1.4124-8.1654 2.5947-4.0018 1.1822-8.5857 2.5462-10.186 3.0313-1.6007 0.48516-4.8154 1.4402-7.1438 2.1224-5.0662 1.4843-9.8191 2.9578-17.992 5.5774-3.347 1.0728-7.7986 2.4317-9.8924 3.0194-3.8348 1.0765-6.0516 1.32-6.9996 0.76895-0.58035-0.33735-1.232-1.7906-1.232-2.7476 0-1.7885 1.1439-2.6972 6.303-5.0064 6.7353-3.0147 31.631-10.118 43.306-13.111 5.7308-1.4692-40.473 8.8057 7.6729-1.7141 1.8121-0.25232 3.2452-0.76153 4.655 5e-3z" style="fill:#fcfffe;stroke-linejoin:round;stroke-width:1.6"/></g><g transform="translate(0 65.088)" style="fill:#c6dbe6"><path d="m185.25 257.27c-2.4464-1.7992-1.6033-1.0842-3.3346-2.2752-1.9172-1.3191-9.1246-5.1037-11.284-5.925-0.69122-0.26296-1.2568-0.56189-1.2568-0.66429s0.69317-0.72448 1.5404-1.3824c0.8472-0.65792 2.2992-2.1355 3.2268-3.2836 5.628-6.9662 13.246-13.32 15.738-15.221 2.1683-1.6542 5.2921-3.0841 7.2099-5.035 0.88025-0.89542 0.73635-1.5066-0.66146-2.8094-1.3106-1.2215-1.6853-1.2809-3.2811-2.2853-1.4203-0.89394-3.8952-2.8811-4.7092-3.7624 5.762 1.2218 11.072 3.8426 16.95 4.5986 13.941 1.7932 25.075 0.51864 29.93-0.29393 1.7332-0.29008 5.7343-0.94036 7.9012-1.3542l1.6676-0.31851-0.8394 0.70077c-6.7505 4.9698-15.649 5.9198-17.655 6.227-5.8135 0.89024-7.2944 1.8963-11.173 3.8263-7.3994 3.6449-16.467 11.931-21.106 19.287-0.14552 0.23074-1.2083 1.8507-2.3618 3.5999-1.1535 1.7492-2.4125 3.7776-2.7979 4.5075-0.38539 0.72994-0.83194 1.5653-0.99233 1.8563s-0.35611 0.73752-0.43492 0.99218c-0.0788 0.25467-0.23634 0.46007-0.35005 0.45645-0.11371-4e-3 -0.93423-0.71136-1.9265-1.4411z" style="fill:#c6dbe6"/><path d="m161.04 335.69c-2.3249-0.14557-4.3805-0.98867-6.4823-1.8402-3.0979-1.1896-7.3705-5.6227-8.3846-8.4604-0.78102-2.1855-1.0467-3.3792-1.1427-3.909-0.10791-0.59545 0.19361-0.76124 0.74193-0.4228 3.7201 2.2962 7.755 3.9634 12.295 5.0801 1.5742 0.3872 7.0902 0.40455 8.9718 0.0282 0.77509-0.155 2.0641-0.40989 2.8645-0.56641 1.5088-0.29507 4.2375-1.0913 5.1594-1.5055 4.9171-2.2092 6.813-3.4462 10.417-6.7967 5.021-4.6685 6.8055-7.3723 7.6092-10.064 0.20348-0.68159 0.46248-1.7668 0.59549-2.3489l0.24184-1.0583-0.0158 1.1034c-9e-3 0.59688-0.10885 1.3961-0.16111 1.8337-0.0522 0.43694-0.23512 1.452-0.40485 2.2524-1.1011 5.1921-2.6379 8.7347-5.0133 12.405-3.4605 5.3473-11.424 11.369-17.766 13.434-2.5628 0.83445-6.8299 1.2086-9.525 0.83514z" style="fill:#c6dbe6"/><path d="m254.7 373.87c-2.2562-0.15349-6.3595-2.3866-8.0287-3.6415-0.88093-0.6622-2.159-1.8235-2.8402-2.5807-1.9256-1.8126-4.4333-6.6362-4.5897-7.0653-0.18561-0.50932-0.43292-1.1642-0.54957-1.4552-0.11665-0.29105-0.47342-1.2436-0.79284-2.1167-0.90237-2.4667-0.88619-2.4306-2.8474-6.35-3.0243-6.044-4.8999-9.5278-8.3628-13.891-2.1936-2.7636-7.3041-7.7327-9.5413-9.2772-1.0287-0.7102-2.8229-1.9585-3.9871-2.774s-2.2953-1.5526-2.5135-1.638c-0.21828-0.0854-0.69453-0.35989-1.0583-0.61004-0.3638-0.25015-1.8481-1.071-3.2984-1.8242-3.6654-1.9034-3.4662-1.6403-2.5637-3.386 0.5212-1.0082 1.0343-3.6043 1.1837-4.8859 0.14939-1.2816 0.54124-4.4689 0.48559-7.487-0.0215-1.1642-0.0134-2.8906 0.0179-3.8364 0.12842-3.8761 1e-3 -8.7185-0.27845-10.583-0.16356-1.0914-0.33967-2.5254-0.46267-3.175-0.33228-1.7549-0.73812-3.4114-1.4031-4.9645-0.30743-0.60435-0.69607-1.5667-1.0938-2.7084-0.17743-0.50933-0.54663-1.4308-0.82045-2.0476-0.72953-1.6436-0.65092-1.4644-0.89054-2.1315-0.2228-0.62031-0.97767-1.2414-0.7379-1.4812 0.0857-0.0857 0.29626-0.0394 0.46785 0.10306 0.35951 0.29837 3.2501 1.8309 7.3474 3.8954 1.5665 0.78933 2.7814 1.5432 2.6998 1.6754-0.0816 0.13211-0.0265 0.468 0.12245 0.74641 0.24551 0.45874 3.2021 4.498 4.1554 5.6772 0.21519 0.26616 0.76726 1.0996 1.2268 1.8521s1.7367 2.5588 2.838 4.014c3.9438 5.211 6.4761 8.4966 7.9746 10.347 1.4693 1.8145 5.5474 7.053 9.0234 11.962 3.9784 5.6186 7.0165 11.433 10.589 17.311 0.48471 0.76435 1.3671 2.4018 1.9609 3.6387 4.7576 9.9109 5.0503 10.58 5.9049 13.494 0.3201 1.0914 0.75935 2.5202 0.97611 3.175 0.66435 2.007 1.987 7.558 2.4586 10.319 0.64172 3.7563 0.8837 4.6917 1.6085 6.2177 0.41471 0.87313 0.90844 1.7716 1.0972 1.9967 0.38586 0.4601 2.1272 1.0691 3.0939 1.2173-0.26686 0.16034-0.32883 0.22166-1.1824 0.76211-2.0796 1.3166-4.2222 1.7217-7.3892 1.5062z" style="fill:#c6dbe6"/><path d="m-106.59 413.65c1.0188-0.93495 2.4778-2.0696 3.2422-2.5215 0.76444-0.45186 3.0568-1.8615 5.0941-3.1325 2.0373-1.271 4.4185-2.7104 5.2917-3.1986 1.6083-0.89937 6.7074-4.0761 8.2495-5.1394 2.9281-2.0189 2.2043-1.4667 8.6687-5.4748 0.2009-0.12456 6.0673-3.9208 8.2172-5.4934 2.3309-1.705 2.4446-1.7863 4.8948-3.5018 1.2369-0.866 2.9633-2.1125 3.8364-2.7699 5.1758-3.8973 11.737-8.5478 15.743-11.159 1.2369-0.80616 3.0824-2.1496 4.101-2.9855 2.1243-1.7431 8.8721-6.8284 10.054-7.577 0.43656-0.27649 2.3416-1.6702 4.2333-3.0972 3.1902-2.4064 4.5452-3.4365 8.0483-6.3847 3.1694-2.7577 6.2352-4.8673 9.5954-7.3814 6.6323-5.0231 8.1593-6.6265 14.188-10.928 10.736-7.6606 20.964-14.469 33.785-22.682 11.863-7.5998 23.576-14.162 36.732-19.505 3.8318-1.4966 6.4462-2.5273 9.0545-3.4154 2.6082-0.88808 7.7088-2.5262 8.9122-2.9039 0.77453-0.2431 3.4512-0.74471 4.4353-1.0684 1.1443-0.37648 6.2568-1.4345 10.186-2.108 5.0558-0.86656 27.108-1.4335 30.217-0.70067 3.1089 0.73285 6.3326 1.7208 9.6882 3.0323 2.4751 0.9678 5.6933 3.2076 8.1324 5.5085 2.5518 2.4073 3.5887 3.92 4.4661 6.5157 0.63872 1.8896 0.73187 2.507 0.60907 4.0368-0.13106 1.6328-0.25288 1.9385-1.2699 3.1871l-1.125 1.3811 0.0387-2.1622c0.0324-1.8103 0.0705-5.2139-6.1745-8.1596-8.3188-3.9238-23.026-2.4899-26.326-2.104-5.4685 0.47763-15.977 2.7404-20.505 4.0046-4.7993 1.594-9.6443 3.075-14.42 4.7432-2.5453 1.104-6.8478 2.3643-16.536 6.8271-3.46 1.5836-12.15 6.2014-15.61 7.9617-1.9835 1.0089 0.44788-0.45468-11.136 6.194-1.3201 0.76398-3.1289 1.7791-4.0196 2.2559-2.3424 1.2537-2.0172 1.1274-3.6964 2.1394-12.49 7.5272-35.888 24.037-38.631 25.701-0.12531 0-2.7286 1.6966-5.7852 3.7703-31.014 21.041-26.047 17.093-28.411 18.719-0.61192 0.42102-4.7718 2.7922-9.3146 5.8575-7.3962 4.6599-9.9809 6.2738-27.529 16.131-7.9923 4.4501-16.175 8.6493-24.474 12.51-4.5317 1.9485-6.0618 2.7102-8.4005 3.6595-1.9413 0.81589-3.8848 1.5145-5.8208 2.3838-0.65484 0.29467-1.4883 0.66389-1.8521 0.8205-0.3638 0.1566-0.75075 0.32714-0.85989 0.37897-0.10915 0.0518 0.15044-0.28977 0.2642-0.45899 0 0 1.1657-1.0254 1.9167-1.7067z" style="fill:#c6dbe6"/></g><path d="m216.12 218.79c-1.2915 0.20992-2.449 1.1068-3.2096 2.6154-0.18342 0.3638-0.41165 1.3537-0.50695 2.1999-0.21052 1.8683 0.21006 2.916 1.7157 4.2762 0.98112 0.88635 1.1262 0.93224 2.9538 0.93224 2.5724 0 3.6125-0.66672 4.4292-2.8396 0.97685-2.599 0.23143-4.717-2.2495-6.3913-0.59578-0.40209-1.2054-0.65698-1.8061-0.77101-0.45049-0.0855-0.89603-0.0917-1.3265-0.0217z" style="fill:#f4fffe;stroke-linejoin:round;stroke-width:1.6"/><path d="m121.67 152.81c-80.873 0-146.71 65.839-146.71 146.71 0 20.414 4.2065 39.865 11.78 57.546 0.14766-0.17798 0.29354-0.35748 0.44132-0.53536 6.1804-7.5018 12.535-14.858 18.826-22.268-3.284-10.999-5.07-22.655-5.07-34.743 0-66.835 53.902-120.74 120.74-120.74 2.62 0 5.2119 0.11224 7.7897 0.27544 1.3533-3.864 2.7669-7.7039 4.4483-11.435 2.1892-4.63 4.6932-9.0939 7.3458-13.469-6.4121-0.86033-12.941-1.3467-19.584-1.3467zm144.34 120.64c-0.0448 0.1258-0.0528 0.26095-0.10645 0.38448-0.66835 1.895-1.9566 3.2092-3.3817 4.8824-2.0889 2.3444-4.2685 4.5312-6.5515 6.6962-3.9712 3.8996-8.601 7.1762-13.684 9.4501 0.0584 1.5482 0.11731 3.0963 0.11731 4.6591 0 17.117-3.5547 33.375-9.9374 48.107 0.70044 0.52581 1.4451 0.99007 2.1311 1.5353 5.4551 4.2296 10.288 9.1854 14.908 14.296 0.8888 0.99757 1.7382 2.034 2.6112 3.0479 10.367-20.099 16.262-42.863 16.262-66.986 0-8.9005-0.84118-17.604-2.3683-26.072zm-67.133 118.99c-20.909 17.379-47.804 27.821-77.209 27.821-26.588 0-51.112-8.5522-71.027-23.033-4.4976 2.6512-8.9462 5.382-13.305 8.2372-3.251 2.1619-6.4835 4.3516-9.725 6.5278 25.489 21.354 58.296 34.242 94.057 34.242 37.658 0 72.046-14.286 98.054-37.707-3.5561-4.531-8.0015-8.3496-12.807-11.425-2.5192-1.8098-5.4665-2.9521-8.0383-4.6628z" style="fill:url(#b);stroke-linejoin:round"/></g></svg>
